<svg width="40" height="40" viewBox="0 0 40 40" fill="none" xmlns="http://www.w3.org/2000/svg">
    <path d="M8.33398 8.66602H11.8925C12.5882 8.66602 12.936 8.66602 13.1979 8.85477C13.4598 9.04353 13.5698 9.37354 13.7898 10.0336L14.089 10.9309C14.529 12.251 14.749 12.911 15.2727 13.2885C15.7965 13.666 16.4922 13.666 17.8837 13.666H18.334" stroke="black" stroke-linecap="round"/>
    <path d="M29.334 27.666H14.7588C13.7541 27.666 13.2518 27.666 12.9609 27.3843C12.8871 27.3127 12.8247 27.2302 12.7759 27.1396C12.5842 26.783 12.7211 26.2997 12.995 25.333C13.3244 24.1703 13.4892 23.5889 13.8917 23.2099C13.9966 23.1111 14.1119 23.024 14.2355 22.95C14.7098 22.666 15.3141 22.666 16.5226 22.666H23.6673" stroke="black" stroke-linecap="round" stroke-linejoin="round"/>
    <path d="M26.699 22.666H16.4969C15.5161 22.666 14.68 21.9547 14.5228 20.9866L13.6166 15.4065C13.4684 14.494 14.1728 13.666 15.0972 13.666H30.7344C31.4733 13.666 31.957 14.4397 31.6334 15.104L28.497 21.542C28.162 22.2297 27.464 22.666 26.699 22.666Z" stroke="black" stroke-linecap="round"/>
    <circle cx="26" cy="31" r="1" fill="black"/>
    <circle cx="16" cy="31" r="1" fill="black"/>
</svg>
