<svg width="28" height="28" viewBox="0 0 28 28" fill="none" xmlns="http://www.w3.org/2000/svg">
    <path d="M4.66663 4.6665H6.60507C7.35502 4.6665 7.73 4.6665 8.00126 4.8783C8.27252 5.09009 8.36347 5.45387 8.54536 6.18143L8.76738 7.0695C8.94562 7.78248 9.03474 8.13897 9.21387 8.41683C9.45838 8.79612 9.82397 9.08156 10.2512 9.22678C10.5642 9.33317 10.9317 9.33317 11.6666 9.33317" stroke="currentColor" stroke-width="2" stroke-linecap="round"/>
    <path d="M21 19.8335H8.80939C8.43148 19.8335 8.24253 19.8335 8.10359 19.7924C7.66676 19.6631 7.37254 19.2549 7.388 18.7995C7.39292 18.6547 7.45267 18.4755 7.57218 18.117C7.70477 17.7192 7.77106 17.5203 7.86435 17.3542C8.15263 16.8409 8.65243 16.4806 9.23059 16.3695C9.41767 16.3335 9.62732 16.3335 10.0466 16.3335H16.3333" stroke="currentColor" stroke-width="2" stroke-linecap="round" stroke-linejoin="round"/>
    <path d="M18.5972 16.3335H11.0275C10.0499 16.3335 9.21549 15.6267 9.05476 14.6623L8.45773 11.0801C8.30534 10.1658 9.01041 9.3335 9.93732 9.3335H21.7153C22.4586 9.3335 22.9421 10.1158 22.6097 10.7807L20.3861 15.2279C20.0473 15.9055 19.3548 16.3335 18.5972 16.3335Z" stroke="currentColor" stroke-width="2" stroke-linecap="round"/>
    <circle cx="19.8333" cy="23.3332" r="1.16667" fill="currentColor"/>
    <circle cx="10.5" cy="23.3332" r="1.16667" fill="currentColor"/>
</svg>
