<svg width="32" height="32" viewBox="0 0 32 32" fill="none" xmlns="http://www.w3.org/2000/svg">
    <path d="M10.9845 5C11.2247 5 11.4604 5.06427 11.6673 5.18612C11.8743 5.30798 12.0448 5.48299 12.1613 5.69299L13.807 8.65737C13.9131 8.84859 13.971 9.06279 13.9757 9.28143C13.9804 9.50007 13.9317 9.71656 13.8339 9.91216L12.2487 13.0838C12.2487 13.0838 12.7083 15.446 14.6311 17.3695C16.5547 19.2924 18.9088 19.7445 18.9088 19.7445L22.0798 18.1587C22.2755 18.0608 22.4921 18.0121 22.7108 18.0168C22.9296 18.0214 23.1439 18.0794 23.3352 18.1856L26.309 19.8394C26.5186 19.9561 26.6931 20.1266 26.8146 20.3334C26.9361 20.5402 27.0001 20.7756 27 21.0155V24.4286C27 26.1671 25.3853 27.4226 23.7382 26.8669C20.3554 25.7251 15.1041 23.5519 11.7758 20.2236C8.44806 16.8952 6.27422 11.6446 5.13314 8.26109C4.57741 6.61473 5.83286 5 7.57139 5H10.9845Z" stroke="black" stroke-linejoin="round"/>
</svg>
