<svg width="40" height="40" viewBox="0 0 40 40" fill="none" xmlns="http://www.w3.org/2000/svg">
    <path fill-rule="evenodd" clip-rule="evenodd" d="M20.5002 8C26.8513 8 32 13.1488 32 19.5C32 25.8512 26.8513 31 20.5002 31C18.5105 31 16.6385 30.494 15.005 29.604L9.93436 30.4544C9.80938 30.4753 9.68124 30.4662 9.56043 30.428C9.43962 30.3898 9.32957 30.3236 9.2393 30.2346C9.14903 30.1457 9.0811 30.0367 9.04108 29.9165C9.00105 29.7963 8.99007 29.6683 9.00903 29.543L9.86483 23.8839C9.29153 22.4936 8.99781 21.0039 9.00048 19.5C9.00048 13.1488 14.1492 8 20.5002 8ZM16.1603 13.8302C15.374 13.8302 14.7225 14.4935 14.8445 15.3129C15.0756 16.8491 15.7581 19.6797 17.7884 21.7251C19.9108 23.8636 22.9478 24.7782 24.592 25.1387C25.4435 25.326 26.1699 24.652 26.1699 23.8208V21.8695C26.1699 21.8047 26.1503 21.7414 26.1136 21.6879C26.077 21.6344 26.025 21.5933 25.9645 21.57L23.8678 20.7645C23.8112 20.7428 23.7496 20.7376 23.6902 20.7495L21.5753 21.1624C20.2114 20.4564 19.3856 19.6647 18.8903 18.472L19.2882 16.3164C19.2989 16.259 19.2937 16.1998 19.2732 16.1452L18.487 14.0388C18.4642 13.9778 18.4233 13.9251 18.3698 13.8878C18.3162 13.8505 18.2527 13.8305 18.1874 13.8302H16.1603Z" fill="#8D8D8D"/>
</svg>
