<svg width="13" height="13" viewBox="0 0 13 13" fill="none" xmlns="http://www.w3.org/2000/svg">
    <path fill-rule="evenodd" clip-rule="evenodd" d="M8.49152 5.23545C8.49152 5.57863 8.4043 5.87829 8.2303 6.1342C8.08684 6.34926 7.8464 6.58232 7.50829 6.83331C7.3137 6.96654 7.18555 7.09189 7.12424 7.20968C7.04705 7.35308 7.00896 7.56801 7.00896 7.85483H5.92565C5.92565 7.41971 5.97196 7.10225 6.06413 6.90258C6.17153 6.6618 6.40454 6.41853 6.7629 6.17277C6.9321 6.04468 7.05497 5.91422 7.1318 5.78112C7.22384 5.63254 7.27016 5.46366 7.27016 5.27417C7.27016 4.97205 7.1803 4.74691 7.00117 4.59817C6.85807 4.49082 6.68373 4.43707 6.47891 4.43707C6.14609 4.43707 5.90533 4.54724 5.7569 4.76738C5.64934 4.93115 5.59541 5.1411 5.59541 5.39706V5.40478H4.44367C4.44367 4.73391 4.65594 4.22712 5.08072 3.88394C5.43924 3.59745 5.8824 3.45382 6.40967 3.45382C6.87076 3.45382 7.27528 3.54352 7.62329 3.72265C8.20227 4.0198 8.49152 4.52429 8.49152 5.23545ZM11.9167 6.50067C11.9167 9.49219 9.49158 11.9173 6.50003 11.9173C3.50851 11.9173 1.08337 9.49219 1.08337 6.50064C1.08337 3.50909 3.50851 1.08398 6.50003 1.08398C9.49156 1.08398 11.9167 3.50909 11.9167 6.50064M10.8334 6.50064C10.8334 4.11121 8.88944 2.1673 6.50003 2.1673C4.11062 2.1673 2.16672 4.11123 2.16672 6.50064C2.16672 8.89005 4.11062 10.834 6.50003 10.834C8.88944 10.834 10.8334 8.89005 10.8334 6.50064ZM6.50001 8.26105C6.12605 8.26105 5.82292 8.56416 5.82292 8.93812C5.82292 9.31207 6.12608 9.61521 6.50001 9.61521C6.87393 9.61521 7.1771 9.31207 7.1771 8.93812C7.1771 8.56416 6.87393 8.26105 6.50001 8.26105Z" fill="#8D8D8D"/>
</svg>
