<svg width="24" height="24" viewBox="0 0 24 24" fill="none" xmlns="http://www.w3.org/2000/svg">
    <path d="M19 19L15.6221 15.6221M15.6221 15.6221C16.1999 15.0444 16.6583 14.3584 16.971 13.6035C17.2837 12.8486 17.4446 12.0394 17.4446 11.2223C17.4446 10.4052 17.2837 9.59606 16.971 8.84114C16.6583 8.08621 16.1999 7.40027 15.6221 6.82247C15.0444 6.24468 14.3584 5.78635 13.6035 5.47365C12.8486 5.16094 12.0394 5 11.2223 5C10.4052 5 9.59606 5.16094 8.84114 5.47365C8.08621 5.78635 7.40027 6.24468 6.82247 6.82247C5.65556 7.98938 5 9.57205 5 11.2223C5 12.8726 5.65556 14.4552 6.82247 15.6221C7.98938 16.7891 9.57205 17.4446 11.2223 17.4446C12.8726 17.4446 14.4552 16.7891 15.6221 15.6221Z" stroke="black" stroke-linecap="round" stroke-linejoin="round"/>
</svg>
