<svg width="40" height="40" viewBox="0 0 40 40" fill="none" xmlns="http://www.w3.org/2000/svg">
    <path d="M30.6665 31L25.5997 25.9332M25.5997 25.9332C26.4664 25.0665 27.1539 24.0376 27.623 22.9052C28.092 21.7728 28.3334 20.5592 28.3334 19.3335C28.3334 18.1078 28.092 16.8941 27.623 15.7617C27.1539 14.6293 26.4664 13.6004 25.5997 12.7337C24.733 11.867 23.7041 11.1795 22.5717 10.7105C21.4393 10.2414 20.2257 10 19 10C17.7743 10 16.5606 10.2414 15.4282 10.7105C14.2958 11.1795 13.2669 11.867 12.4002 12.7337C10.6498 14.4841 9.6665 16.8581 9.6665 19.3335C9.6665 21.8089 10.6498 24.1829 12.4002 25.9332C14.1506 27.6836 16.5246 28.6669 19 28.6669C21.4754 28.6669 23.8494 27.6836 25.5997 25.9332Z" stroke="black" stroke-linecap="round" stroke-linejoin="round"/>
</svg>
