<svg width="40" height="40" viewBox="0 0 40 40" fill="none" xmlns="http://www.w3.org/2000/svg">
    <path fill-rule="evenodd" clip-rule="evenodd" d="M30.4104 8.14611C30.7178 8.01674 31.0542 7.97212 31.3847 8.01689C31.7152 8.06167 32.0276 8.19421 32.2895 8.40071C32.5514 8.60721 32.7531 8.88013 32.8737 9.19105C32.9943 9.50198 33.0294 9.83955 32.9753 10.1686L30.1542 27.2804C29.8805 28.931 28.0695 29.8775 26.5557 29.0553C25.2895 28.3675 23.4088 27.3077 21.7171 26.2019C20.8713 25.6484 18.2803 23.8759 18.5988 22.6147C18.8724 21.5362 23.2259 17.4837 25.7136 15.0744C26.6901 14.1278 26.2448 13.5818 25.0917 14.4525C22.2283 16.6143 17.631 19.9018 16.111 20.8272C14.7702 21.6432 14.0711 21.7825 13.2353 21.6432C11.7103 21.3895 10.296 20.9964 9.14172 20.5175C7.58192 19.8707 7.6578 17.7263 9.14048 17.1019L30.4104 8.14611Z" fill="#8D8D8D"/>
</svg>
