<svg width="40" height="40" viewBox="0 0 40 40" fill="none" xmlns="http://www.w3.org/2000/svg">
    <path d="M35.84 29.6341H32.0367C30.5983 29.6341 30.165 28.4691 27.5867 25.8891C25.3333 23.7174 24.3817 23.4474 23.8117 23.4474C23.0233 23.4474 22.8083 23.6641 22.8083 24.7491V28.1691C22.8083 29.0941 22.5083 29.6358 20.0917 29.6358C17.7472 29.4783 15.4736 28.766 13.4583 27.5577C11.443 26.3494 9.74354 24.6795 8.5 22.6858C5.54836 19.0101 3.49401 14.6972 2.5 10.0891C2.5 9.5191 2.71667 9.00243 3.80333 9.00243H7.60333C8.58 9.00243 8.93167 9.43743 9.315 10.4424C11.16 15.8724 14.3083 20.5958 15.5867 20.5958C16.0767 20.5958 16.29 20.3791 16.29 19.1574V13.5641C16.1283 11.0124 14.7733 10.7974 14.7733 9.8741C14.7905 9.6305 14.9019 9.40318 15.084 9.24042C15.266 9.07766 15.5043 8.99229 15.7483 9.00243H21.7217C22.5383 9.00243 22.8083 9.4091 22.8083 10.3858V17.9358C22.8083 18.7508 23.1583 19.0208 23.405 19.0208C23.895 19.0208 24.2717 18.7508 25.17 17.8541C27.0948 15.5052 28.6679 12.8889 29.84 10.0874C29.9594 9.7507 30.1859 9.46242 30.4849 9.26675C30.7838 9.07107 31.1386 8.97881 31.495 9.0041H35.2967C36.4367 9.0041 36.6783 9.5741 36.4367 10.3874C35.0536 13.4846 33.3427 16.4247 31.3333 19.1574C30.9233 19.7824 30.76 20.1074 31.3333 20.8408C31.71 21.4108 33.0433 22.5241 33.9383 23.5824C35.2417 24.8824 36.3233 26.3858 37.1417 28.0324C37.4683 29.0924 36.925 29.6341 35.84 29.6341Z" fill="#8D8D8D"/>
</svg>
